<mxfile host="app.diagrams.net" agent="Mozilla/5.0 (Macintosh; Intel Mac OS X 10_15_7) AppleWebKit/537.36 (KHTML, like Gecko) Chrome/135.0.0.0 Safari/537.36" version="26.2.12">
  <diagram name="Page-1" id="Wlvs1wKaWDUERowhNef7">
    <mxGraphModel dx="1218" dy="780" grid="1" gridSize="10" guides="1" tooltips="1" connect="1" arrows="1" fold="1" page="1" pageScale="1" pageWidth="850" pageHeight="1100" math="0" shadow="0">
      <root>
        <mxCell id="0" />
        <mxCell id="1" parent="0" />
        <mxCell id="HMVxxUSQnhvCQYOiZckJ-1" value="" style="rounded=0;whiteSpace=wrap;html=1;" vertex="1" parent="1">
          <mxGeometry x="350" y="200" width="380" height="680" as="geometry" />
        </mxCell>
        <mxCell id="HMVxxUSQnhvCQYOiZckJ-2" value="Queue Management" style="text;html=1;align=center;verticalAlign=middle;whiteSpace=wrap;rounded=0;" vertex="1" parent="1">
          <mxGeometry x="475" y="160" width="130" height="30" as="geometry" />
        </mxCell>
        <mxCell id="HMVxxUSQnhvCQYOiZckJ-3" value="" style="ellipse;whiteSpace=wrap;html=1;" vertex="1" parent="1">
          <mxGeometry x="460" y="220" width="145" height="80" as="geometry" />
        </mxCell>
        <mxCell id="HMVxxUSQnhvCQYOiZckJ-4" value="Setup Simulation" style="text;html=1;align=center;verticalAlign=middle;whiteSpace=wrap;rounded=0;" vertex="1" parent="1">
          <mxGeometry x="475" y="240" width="107.5" height="30" as="geometry" />
        </mxCell>
        <mxCell id="HMVxxUSQnhvCQYOiZckJ-5" value="Start Simulation" style="ellipse;whiteSpace=wrap;html=1;" vertex="1" parent="1">
          <mxGeometry x="460" y="320" width="145" height="80" as="geometry" />
        </mxCell>
        <mxCell id="HMVxxUSQnhvCQYOiZckJ-6" value="Run Simulation&lt;div&gt;Graphical Design&lt;/div&gt;" style="ellipse;whiteSpace=wrap;html=1;" vertex="1" parent="1">
          <mxGeometry x="460" y="420" width="145" height="80" as="geometry" />
        </mxCell>
        <mxCell id="HMVxxUSQnhvCQYOiZckJ-7" value="Log&lt;div&gt;Simulation Results&lt;/div&gt;" style="ellipse;whiteSpace=wrap;html=1;" vertex="1" parent="1">
          <mxGeometry x="460" y="520" width="145" height="80" as="geometry" />
        </mxCell>
        <mxCell id="HMVxxUSQnhvCQYOiZckJ-8" value="Average Waiting Time" style="ellipse;whiteSpace=wrap;html=1;" vertex="1" parent="1">
          <mxGeometry x="460" y="610" width="145" height="80" as="geometry" />
        </mxCell>
        <mxCell id="HMVxxUSQnhvCQYOiZckJ-9" value="Average Service Time" style="ellipse;whiteSpace=wrap;html=1;" vertex="1" parent="1">
          <mxGeometry x="460" y="700" width="145" height="80" as="geometry" />
        </mxCell>
        <mxCell id="HMVxxUSQnhvCQYOiZckJ-10" value="Peak Hour" style="ellipse;whiteSpace=wrap;html=1;" vertex="1" parent="1">
          <mxGeometry x="467.5" y="790" width="145" height="80" as="geometry" />
        </mxCell>
        <mxCell id="HMVxxUSQnhvCQYOiZckJ-11" value="" style="ellipse;whiteSpace=wrap;html=1;aspect=fixed;" vertex="1" parent="1">
          <mxGeometry x="90" y="280" width="80" height="80" as="geometry" />
        </mxCell>
        <mxCell id="HMVxxUSQnhvCQYOiZckJ-12" value="" style="endArrow=none;html=1;rounded=0;entryX=0.5;entryY=1;entryDx=0;entryDy=0;" edge="1" parent="1" target="HMVxxUSQnhvCQYOiZckJ-11">
          <mxGeometry width="50" height="50" relative="1" as="geometry">
            <mxPoint x="130" y="580" as="sourcePoint" />
            <mxPoint x="450" y="490" as="targetPoint" />
          </mxGeometry>
        </mxCell>
        <mxCell id="HMVxxUSQnhvCQYOiZckJ-13" value="" style="endArrow=none;html=1;rounded=0;" edge="1" parent="1">
          <mxGeometry width="50" height="50" relative="1" as="geometry">
            <mxPoint x="130" y="580" as="sourcePoint" />
            <mxPoint x="210" y="680" as="targetPoint" />
          </mxGeometry>
        </mxCell>
        <mxCell id="HMVxxUSQnhvCQYOiZckJ-14" value="" style="endArrow=none;html=1;rounded=0;" edge="1" parent="1">
          <mxGeometry width="50" height="50" relative="1" as="geometry">
            <mxPoint x="130" y="580" as="sourcePoint" />
            <mxPoint x="70" y="680" as="targetPoint" />
          </mxGeometry>
        </mxCell>
        <mxCell id="HMVxxUSQnhvCQYOiZckJ-15" value="" style="endArrow=none;html=1;rounded=0;" edge="1" parent="1">
          <mxGeometry width="50" height="50" relative="1" as="geometry">
            <mxPoint x="200" y="430" as="sourcePoint" />
            <mxPoint x="130" y="360" as="targetPoint" />
          </mxGeometry>
        </mxCell>
        <mxCell id="HMVxxUSQnhvCQYOiZckJ-16" value="" style="endArrow=none;html=1;rounded=0;" edge="1" parent="1">
          <mxGeometry width="50" height="50" relative="1" as="geometry">
            <mxPoint x="70" y="430" as="sourcePoint" />
            <mxPoint x="130" y="360" as="targetPoint" />
          </mxGeometry>
        </mxCell>
        <mxCell id="HMVxxUSQnhvCQYOiZckJ-17" value="User" style="text;html=1;align=center;verticalAlign=middle;resizable=0;points=[];autosize=1;strokeColor=none;fillColor=none;" vertex="1" parent="1">
          <mxGeometry x="105" y="680" width="50" height="30" as="geometry" />
        </mxCell>
        <mxCell id="HMVxxUSQnhvCQYOiZckJ-18" value="" style="endArrow=none;html=1;rounded=0;entryX=0.007;entryY=0.6;entryDx=0;entryDy=0;entryPerimeter=0;" edge="1" parent="1" target="HMVxxUSQnhvCQYOiZckJ-3">
          <mxGeometry width="50" height="50" relative="1" as="geometry">
            <mxPoint x="130" y="440" as="sourcePoint" />
            <mxPoint x="450" y="490" as="targetPoint" />
          </mxGeometry>
        </mxCell>
        <mxCell id="HMVxxUSQnhvCQYOiZckJ-19" value="" style="endArrow=none;html=1;rounded=0;entryX=0.014;entryY=0.613;entryDx=0;entryDy=0;entryPerimeter=0;" edge="1" parent="1" target="HMVxxUSQnhvCQYOiZckJ-5">
          <mxGeometry width="50" height="50" relative="1" as="geometry">
            <mxPoint x="130" y="440" as="sourcePoint" />
            <mxPoint x="471" y="278" as="targetPoint" />
          </mxGeometry>
        </mxCell>
        <mxCell id="HMVxxUSQnhvCQYOiZckJ-20" value="" style="endArrow=none;html=1;rounded=0;entryX=0;entryY=0.5;entryDx=0;entryDy=0;" edge="1" parent="1" target="HMVxxUSQnhvCQYOiZckJ-6">
          <mxGeometry width="50" height="50" relative="1" as="geometry">
            <mxPoint x="130" y="440" as="sourcePoint" />
            <mxPoint x="472" y="379" as="targetPoint" />
          </mxGeometry>
        </mxCell>
        <mxCell id="HMVxxUSQnhvCQYOiZckJ-21" value="" style="endArrow=none;html=1;rounded=0;entryX=0;entryY=0.5;entryDx=0;entryDy=0;" edge="1" parent="1" target="HMVxxUSQnhvCQYOiZckJ-7">
          <mxGeometry width="50" height="50" relative="1" as="geometry">
            <mxPoint x="130" y="440" as="sourcePoint" />
            <mxPoint x="470" y="470" as="targetPoint" />
          </mxGeometry>
        </mxCell>
        <mxCell id="HMVxxUSQnhvCQYOiZckJ-22" value="" style="endArrow=none;html=1;rounded=0;entryX=0.028;entryY=0.613;entryDx=0;entryDy=0;entryPerimeter=0;" edge="1" parent="1" target="HMVxxUSQnhvCQYOiZckJ-8">
          <mxGeometry width="50" height="50" relative="1" as="geometry">
            <mxPoint x="130" y="440" as="sourcePoint" />
            <mxPoint x="470" y="570" as="targetPoint" />
          </mxGeometry>
        </mxCell>
        <mxCell id="HMVxxUSQnhvCQYOiZckJ-23" value="" style="endArrow=none;html=1;rounded=0;entryX=0;entryY=0.5;entryDx=0;entryDy=0;" edge="1" parent="1" target="HMVxxUSQnhvCQYOiZckJ-9">
          <mxGeometry width="50" height="50" relative="1" as="geometry">
            <mxPoint x="130" y="440" as="sourcePoint" />
            <mxPoint x="474" y="669" as="targetPoint" />
          </mxGeometry>
        </mxCell>
        <mxCell id="HMVxxUSQnhvCQYOiZckJ-24" value="" style="endArrow=none;html=1;rounded=0;entryX=0;entryY=0.5;entryDx=0;entryDy=0;" edge="1" parent="1" target="HMVxxUSQnhvCQYOiZckJ-10">
          <mxGeometry width="50" height="50" relative="1" as="geometry">
            <mxPoint x="130" y="440" as="sourcePoint" />
            <mxPoint x="470" y="750" as="targetPoint" />
          </mxGeometry>
        </mxCell>
      </root>
    </mxGraphModel>
  </diagram>
</mxfile>
